<?xml version="1.0" encoding="UTF-8"?>
<svg width="1080px" height="1080px" viewBox="0 0 1080 1080" version="1.1" xmlns="http://www.w3.org/2000/svg" xmlns:xlink="http://www.w3.org/1999/xlink">
    <!-- Generator: Sketch 63.1 (92452) - https://sketch.com -->
    <title>ic_grass</title>
    <desc>Created with Sketch.</desc>
    <defs>
        <polygon id="path-1" points="0.122 -0.00114608635 774.728844 -0.00114608635 774.728844 607.999116 0.122 607.999116"></polygon>
    </defs>
    <g id="页面-1" stroke="none" stroke-width="1" fill="none" fill-rule="evenodd">
        <g id="ic_grass" transform="translate(55.000000, 56.000000)">
            <path d="M904,0 C939.346224,-6.49299601e-15 968,28.653776 968,64 L968,904 C968,939.346224 939.346224,968 904,968 L64,968 C28.653776,968 4.32866401e-15,939.346224 0,904 L0,64 C-4.32866401e-15,28.653776 28.653776,6.49299601e-15 64,0 L904,0 Z M904,56 L64,56 C59.581722,56 56,59.581722 56,64 L56,64 L56,904 C56,908.418278 59.581722,912 64,912 L64,912 L904,912 C908.418278,912 912,908.418278 912,904 L912,904 L912,64 C912,59.581722 908.418278,56 904,56 L904,56 Z" id="形状结合" fill="#010101"></path>
            <g id="编组" transform="translate(96.000000, 180.000000)">
                <mask id="mask-2" fill="white">
                    <use xlink:href="#path-1"></use>
                </mask>
                <g id="Clip-2"></g>
                <path d="M640.388,90.913 C639.579,91.327 638.665,91.502 637.759,91.416 C621.861,92.206 606.079,94.53 590.63,98.35 C572.94,102.811 555.993,109.819 540.318,119.151 C521.673,130.272 504.638,143.897 489.693,159.647 C474.837,173.073 462.318,188.87 452.638,206.401 L441.607,192.913 C461.513,160.022 489.708,132.932 523.365,114.35 C558.013,93.393 598.802,84.936 638.927,90.401 C640.591,90.401 641.15,90.401 640.591,90.905 L640.388,90.913 Z M322.087,206.401 C312.396,188.889 299.88,173.104 285.036,159.678 C270.092,143.936 253.056,130.319 234.415,119.198 C218.638,109.85 201.587,102.842 183.798,98.401 C168.349,94.577 152.563,92.252 136.669,91.463 C135.763,91.549 134.849,91.377 134.036,90.959 C133.524,90.549 134.036,90.456 135.701,90.456 C175.829,84.991 216.615,93.44 251.271,114.389 C284.931,132.983 313.138,160.073 333.067,192.959 L322.087,206.401 Z M757.431,71.518 C744.247,57.776 729.197,45.952 712.725,36.389 C692.876,24.678 671.704,15.366 649.654,8.655 C626.333,1.28 601.786,-1.423 577.423,0.702 C544.275,1.823 511.868,10.791 482.861,26.87 C460.88,39.553 442.607,57.776 429.861,79.717 C418.536,99.889 412.772,122.702 413.158,145.831 C413.275,168.538 418.181,190.959 427.556,211.639 C421.79,221.768 416.775,230.725 412.724,239.373 C407.962,249.506 403.576,259.834 399.564,270.358 C394.638,284.831 390.533,299.569 387.263,314.502 C383.868,299.612 379.771,284.897 374.967,270.358 C370.919,259.862 366.529,249.534 361.798,239.373 C357.701,230.725 352.692,221.557 346.919,211.639 C356.317,190.967 361.228,168.538 361.317,145.831 C361.721,122.709 355.978,99.893 344.669,79.717 C331.904,57.772 313.611,39.553 291.615,26.87 C262.63,10.784 230.24,1.815 197.11,0.702 C172.724,-1.423 148.161,1.28 124.822,8.655 C102.783,15.377 81.615,24.686 61.767,36.389 C45.313,45.959 30.279,57.784 17.103,71.518 C7.915,79.721 1.876,90.877 0.036,103.053 C-0.519,110.928 5.337,117.795 13.197,118.495 C21.997,120.319 32.837,121.885 45.997,123.557 C60.587,125.237 75.044,127.893 89.279,131.51 C106.255,136.12 121.701,145.166 134.021,157.725 C143.544,166.526 152.474,175.944 160.751,185.928 C168.99,196.061 177.428,206.014 186.06,215.791 C194.29,225.19 203.063,234.096 212.333,242.471 C220.899,250.385 230.833,256.678 241.646,261.045 C247.931,263.541 254.356,265.678 260.885,267.448 C268.74,269.538 276.923,270.081 284.981,269.045 C294.368,267.604 303.329,264.151 311.255,258.92 C322.072,251.631 330.981,241.85 337.228,230.401 C342.958,239.948 347.513,250.155 350.79,260.799 C354.856,273.209 358.24,285.834 360.919,298.616 C363.899,312.592 366.439,326.709 368.415,340.831 C370.388,354.952 371.899,368.12 373.471,381.838 C374.135,388.569 374.685,395.35 375.142,402.088 L373.372,419.038 C373.372,430.081 373.678,441.061 374.173,452.096 C374.669,463.127 375.135,474.495 375.486,485.694 L375.486,494.655 C375.135,500.877 374.685,506.846 374.326,512.517 C374.067,515.045 373.813,517.584 373.524,520.06 C369.001,519.17 364.76,517.19 361.173,514.288 C355.993,510.006 351.294,505.178 347.149,499.885 C343.618,495.252 339.481,491.112 334.846,487.584 C329.341,484.334 322.556,484.142 316.876,487.081 C299.868,492.854 282.255,499.432 263.876,506.87 C247.001,513.581 230.501,520.85 214.372,528.678 C202.435,534.174 191.255,541.182 181.11,549.534 C173.513,556.28 172.048,562.147 176.708,567.135 C189.505,577.685 204.529,585.206 220.646,589.12 C243.579,595.577 266.99,600.198 290.654,602.936 C318.396,606.342 346.326,608.034 374.279,607.999116 C403.018,608.045 431.74,606.608 460.333,603.694 C486.329,601.206 512.104,596.76 537.431,590.401 C557.372,585.905 576.443,578.159 593.868,567.471 C599.647,563.877 598.936,558.767 591.19,551.983 C580.919,543.463 569.607,536.284 557.525,530.616 C540.975,522.471 524.22,514.776 506.911,507.685 C489.599,500.6 471.47,493.569 453.501,487.44 C447.736,484.998 441.13,485.596 435.9,489.038 C431.408,492.514 427.298,496.456 423.638,500.799 C419.216,505.788 414.4,510.409 409.24,514.623 C406.775,516.573 404.005,518.096 401.036,519.127 L400.38,512.846 C399.927,506.928 399.525,500.905 399.22,494.928 L399.22,486.006 C399.556,474.767 399.993,463.569 400.533,452.409 C401.036,441.424 401.333,430.389 401.333,419.401 L399.54,402.401 C399.997,395.616 400.607,388.877 401.212,382.151 C402.525,368.448 404.212,354.784 406.272,341.151 C408.247,327.022 410.775,312.905 413.768,298.928 C416.466,286.135 419.841,273.495 423.884,261.061 C427.19,250.42 431.751,240.217 437.486,230.663 C443.72,242.116 452.615,251.901 463.423,259.198 C471.326,264.471 480.298,267.932 489.693,269.327 C497.747,270.409 505.936,269.893 513.79,267.807 C520.314,266.018 526.736,263.881 533.029,261.409 C543.833,257.018 553.764,250.725 562.341,242.831 C571.604,234.448 580.376,225.541 588.615,216.151 C597.318,206.397 605.755,196.44 613.927,186.288 C622.204,176.28 631.154,166.842 640.7,158.038 C653.013,145.502 668.44,136.471 685.397,131.87 C699.63,128.256 714.091,125.6 728.677,123.92 C741.884,122.502 752.775,120.936 761.533,118.862 C769.4,118.131 775.243,111.248 774.693,103.366 C772.833,91.198 766.783,80.057 757.583,71.877 L757.431,71.518 Z" id="Fill-1" fill="#08790F" mask="url(#mask-2)"></path>
            </g>
        </g>
    </g>
</svg>